# xmcd
#
# Track frame offsets:
#	150
#	37046
#	52557
#	85390
#	100751
#
# Disc length: 1800 seconds
#
# Revision: 0
# Processed by: cddbd v1.5.2PL0 Copyright (c) Steve Scherf et al.
# Submitted via: EasyCDDAExtractor 2010.6.0.0
#
DISCID=31070605
DTITLE=Faith Evans - Mesmerized
DYEAR=2005
DGENRE=Dance
TTITLE0=Mesmerized (Freemasons Vocal Mix)
TTITLE1=Mesmerized (Freemasons Vocal Mix Radio Edit)
TTITLE2=Mesmerized (Freemasons Club Dub Mix)
TTITLE3=Mesmerized (Freemasons Instrumental)
TTITLE4=Mesmerized (Dave  Hernandez Club Mix)
EXTD=
EXTT0=
EXTT1=
EXTT2=
EXTT3=
EXTT4=
PLAYORDER=
